<?xml version="1.0" encoding="iso-8859-1"?>
<!-- Uploaded to: SVG Repo, www.svgrepo.com, Generator: SVG Repo Mixer Tools -->
<svg fill="#000000" height="800px" width="800px" version="1.1" id="Layer_1" xmlns="http://www.w3.org/2000/svg" xmlns:xlink="http://www.w3.org/1999/xlink" 
	 viewBox="0 0 511.994 511.994" xml:space="preserve">
<g>
	<g>
		<g>
			<path d="M383.997,277.339h-256c-11.782,0-21.333,9.551-21.333,21.333c0,77.189,65.715,128,149.333,128
				s149.333-50.811,149.333-128C405.33,286.89,395.779,277.339,383.997,277.339z M255.997,384.005
				c-52.965,0-93.164-25.064-103.851-64h207.701C349.161,358.941,308.962,384.005,255.997,384.005z"/>
			<path d="M170.664,192.006c11.791,0,21.333,9.542,21.333,21.333c0,11.782,9.551,21.333,21.333,21.333
				c11.782,0,21.333-9.551,21.333-21.333c0-35.355-28.645-64-64-64c-11.782,0-21.333,9.551-21.333,21.333
				C149.33,182.454,158.882,192.006,170.664,192.006z"/>
			<path d="M298.664,234.672c11.782,0,21.333-9.551,21.333-21.333c0-11.791,9.542-21.333,21.333-21.333
				c11.782,0,21.333-9.551,21.333-21.333c0-11.782-9.551-21.333-21.333-21.333c-35.355,0-64,28.645-64,64
				C277.33,225.121,286.882,234.672,298.664,234.672z"/>
			<path d="M488.707,192.722c-2.678-2.027-5.59-3.995-8.682-5.883C450.052,89.504,359.865,21.33,255.993,21.33
				c-103.877,0-194.066,68.179-224.035,165.52c-2.824,1.727-5.496,3.521-7.976,5.366c-0.235,0.164-0.466,0.332-0.695,0.506
				c-25.865,19.641-30.965,56.729-11.36,82.624c3.383,4.468,7.295,8.301,11.572,11.512
				c15.203,115.677,114.058,203.805,232.494,203.805c118.434,0,217.287-88.124,232.493-203.798
				c4.281-3.212,8.196-7.048,11.581-11.519C519.672,249.452,514.572,212.364,488.707,192.722z M459.718,254.401
				c-4.775,2.136-10.09,1.979-14.449-0.346c-0.117-0.063-0.236-0.123-0.352-0.19c-0.23-0.131-0.458-0.269-0.682-0.412
				c-0.193-0.123-0.382-0.255-0.571-0.388c-0.155-0.109-0.313-0.212-0.465-0.327c-2.266-1.715-5.131-4.545-8.201-8.039
				c-5.299-6.041-11.22-14.087-15.737-21.897c-2.731-4.723-4.803-9.087-6.112-12.755c-0.091-0.255-0.188-0.516-0.272-0.765
				c1.894,0.103,4.076,0.35,6.484,0.753c10.252,1.716,22.993,5.993,33.488,11.067c0.694,0.336,1.392,0.615,2.09,0.871
				c3.317,1.675,6.086,3.309,7.986,4.748c7.094,5.387,8.518,15.745,3.122,22.872c-1.313,1.734-2.924,3.123-4.709,4.165
				C460.798,253.95,460.257,254.16,459.718,254.401z M68.801,252.727c-0.263,0.199-0.532,0.386-0.804,0.567
				c-0.041,0.027-0.082,0.056-0.123,0.083c-4.563,2.965-10.395,3.351-15.619,1.018c-0.53-0.237-1.062-0.443-1.594-0.634
				c-1.788-1.042-3.402-2.433-4.716-4.169c-5.299-6.999-4.02-17.114,2.769-22.594c0.129-0.094,0.258-0.189,0.385-0.285
				c1.902-1.442,4.68-3.082,8.011-4.763c0.677-0.25,1.353-0.523,2.026-0.848c10.495-5.074,23.236-9.351,33.489-11.067
				c2.412-0.404,4.597-0.65,6.494-0.753c-1.284,3.816-3.463,8.469-6.384,13.52c-3.741,6.468-8.444,13.091-12.964,18.613
				C75.675,246.413,71.733,250.507,68.801,252.727z M255.993,447.997c-91.131,0-168.106-63.803-187.269-150.13
				c6.843-1.135,13.55-3.492,19.794-7.111c0.017-0.01,0.034-0.019,0.05-0.029c2.053-1.193,4.062-2.506,6.002-3.974
				c3.725-2.828,7.462-6.121,11.117-9.766c14.859-14.799,28.359-35.515,34.088-55.123c4.475-15.294,4.223-29.908-3.812-40.506
				c-0.281-0.371-0.573-0.73-0.869-1.086c-10.783-13.192-28.673-16.294-49.229-12.898c32.322-62.158,97.1-103.377,170.128-103.377
				c73.029,0,137.807,41.219,170.129,103.378c-21.099-3.484-39.394-0.127-50.079,13.969c-0.003,0.004-0.006,0.007-0.008,0.01
				c0,0-0.001,0.001-0.001,0.001c-0.001,0.001-0.002,0.002-0.002,0.003c-0.055,0.073-0.105,0.149-0.159,0.222
				c-10.24,13.765-7.542,34.186,1.536,54.082c0.141,0.308,0.287,0.616,0.431,0.924c0.144,0.309,0.285,0.619,0.433,0.927
				c6.833,14.339,16.882,28.282,27.677,39.121c0.005,0.005,0.009,0.01,0.014,0.014c0.198,0.199,0.397,0.392,0.595,0.589
				c3.568,3.538,7.21,6.738,10.841,9.496c0.953,0.721,1.925,1.399,2.907,2.054c0.109,0.073,0.22,0.14,0.329,0.212
				c0.854,0.562,1.718,1.098,2.592,1.609c0.167,0.098,0.335,0.193,0.503,0.289c0.897,0.514,1.803,1.002,2.718,1.464
				c0.075,0.038,0.15,0.077,0.225,0.115c5.313,2.653,10.905,4.44,16.589,5.384C424.102,384.191,347.126,447.997,255.993,447.997z"/>
		</g>
	</g>
</g>
</svg>